<svg width="24" height="24" viewBox="0 0 24 24" fill="none" xmlns="http://www.w3.org/2000/svg">
<g clip-path="url(#clip0_109:86)">
<path d="M18.7924 10.4437V6.01848C18.7924 5.67986 18.5518 5.39251 18.2243 5.32848L12.3135 1.91594C12.096 1.79031 11.828 1.79031 11.6104 1.91594L5.55919 5.40962C5.34164 5.5352 5.20762 5.76733 5.20762 6.01853V10.4437C2.87611 11.1773 0 12.6913 0 15.1342C0 17.2306 2.22244 19.0517 5.96742 20.0447L5.68805 21.3241C5.56823 21.8726 6.11184 22.3366 6.63614 22.1269L10.1518 20.7206C10.6169 20.5347 10.7443 19.9334 10.3922 19.5751L7.76719 16.9032C7.37663 16.5058 6.69788 16.7 6.57867 17.246L6.26784 18.6692C3.30047 17.8697 1.40625 16.5023 1.40625 15.1342C1.40625 13.9462 2.84466 12.7461 5.20762 11.925V13.0059C5.20762 13.2571 5.34164 13.4892 5.55919 13.6148L11.6484 17.1304C11.866 17.2561 12.134 17.2561 12.3516 17.1304L18.4408 13.6148C18.6584 13.4892 18.7924 13.2571 18.7924 13.0059V11.925C21.1553 12.7461 22.5938 13.9462 22.5938 15.1342C22.5938 17.7379 16.8751 19.0597 14.0667 19.2913C13.6797 19.3232 13.3919 19.6629 13.4238 20.0499C13.4555 20.4331 13.7911 20.7247 14.1825 20.6928C17.8434 20.3901 24 18.8082 24 15.1342C24 12.691 21.1231 11.177 18.7924 10.4437ZM7.67517 18.8161L8.64891 19.8072L7.3448 20.3289L7.67517 18.8161ZM11.962 3.33672L16.645 6.04047C16.0732 6.37056 12.3815 8.50197 12 8.72223C11.5837 8.4819 7.94161 6.37914 7.317 6.01848L11.962 3.33672ZM6.61387 7.23639L11.2969 9.94009V15.3037L6.61387 12.5999V7.23639ZM17.3861 12.5999L12.7031 15.3037V9.94009L17.3861 7.23639V12.5999Z" fill="#61796D"/>
</g>
<defs>
<clipPath id="clip0_109:86">
<rect width="24" height="24" fill="white"/>
</clipPath>
</defs>
</svg>
