<svg width="18" height="19" viewBox="0 0 18 19" fill="none" xmlns="http://www.w3.org/2000/svg">
<path d="M7.51562 10.9453C7.51562 10.2031 7.04688 9.89062 6.34375 9.89062H4.54688V11.9609H6.30469C6.96875 11.9609 7.51562 11.7266 7.51562 10.9453ZM7.20312 7.74219C7.20312 7.03906 6.69531 6.88281 6.07031 6.88281H4.54688V8.64062H6.22656C6.8125 8.64062 7.20312 8.36719 7.20312 7.74219ZM12.3984 8.64062C11.6562 8.64062 11.1875 9.10938 11.1484 9.8125H13.5703C13.4922 9.10938 13.1406 8.64062 12.3984 8.64062ZM17.75 2.625C17.75 1.60938 16.8906 0.75 15.875 0.75H2.125C1.07031 0.75 0.25 1.60938 0.25 2.625V16.375C0.25 17.4297 1.07031 18.25 2.125 18.25H15.875C16.8906 18.25 17.75 17.4297 17.75 16.375V2.625ZM10.8359 6.72656V6.02344H13.8828V6.72656H10.8359ZM9.15625 11.0625C9.15625 12.5859 7.90625 13.2109 6.53906 13.25H2.90625V5.75H6.42188C7.71094 5.75 8.80469 6.10156 8.80469 7.58594C8.80469 8.32812 8.45312 8.71875 7.78906 9.03125C8.72656 9.30469 9.15625 10.125 9.15625 11.0625ZM15.0938 10.4766C15.0938 10.5547 15.0547 10.6719 15.0547 10.75H11.1484C11.1484 11.6094 11.6172 12.1172 12.4766 12.1172C12.9453 12.1172 13.5312 11.8828 13.6484 11.4141H14.9766C14.5859 12.6641 13.7266 13.25 12.4375 13.25C10.7188 13.25 9.66406 12.0781 9.66406 10.3984C9.66406 8.75781 10.7969 7.54688 12.4375 7.54688C14.1172 7.54688 15.0938 8.875 15.0938 10.4766Z" fill="black"/>
</svg>
