<svg width="28" height="22" viewBox="0 0 28 22" fill="none" xmlns="http://www.w3.org/2000/svg">
<path d="M13.625 5.98438L5 13.1094V20.75C5 21.1719 5.32812 21.5 5.75 21.5H11C11.375 21.5 11.7031 21.1719 11.7031 20.75V16.25C11.7031 15.875 12.0781 15.5 12.4531 15.5H15.4531C15.875 15.5 16.2031 15.875 16.2031 16.25V20.75C16.2031 21.1719 16.5781 21.5 16.9531 21.5H22.25C22.625 21.5 23 21.1719 23 20.75V13.0625L14.3281 5.98438C14.2344 5.89062 14.0938 5.84375 14 5.84375C13.8594 5.84375 13.7188 5.89062 13.625 5.98438ZM27.2656 10.8125L23.375 7.57812V1.10938C23.375 0.78125 23.0938 0.546875 22.8125 0.546875H20.1875C19.8594 0.546875 19.625 0.78125 19.625 1.10938V4.48438L15.4062 1.01562C15.0312 0.734375 14.5156 0.546875 14 0.546875C13.4375 0.546875 12.9219 0.734375 12.5469 1.01562L0.6875 10.8125C0.546875 10.9062 0.453125 11.0938 0.453125 11.2344C0.453125 11.375 0.546875 11.5156 0.59375 11.6094L1.8125 13.0625C1.90625 13.2031 2.04688 13.25 2.23438 13.25C2.375 13.25 2.51562 13.2031 2.60938 13.1094L13.625 4.0625C13.7188 3.96875 13.8594 3.92188 14 3.92188C14.0938 3.92188 14.2344 3.96875 14.3281 4.0625L25.3438 13.1094C25.4375 13.2031 25.5781 13.25 25.7188 13.25C25.9062 13.25 26.0469 13.2031 26.1406 13.0625L27.3594 11.6094C27.4531 11.5156 27.5 11.375 27.5 11.2344C27.5 11.0938 27.4062 10.9062 27.2656 10.8125Z" fill="#61796D"/>
</svg>
