<svg width="24" height="24" viewBox="0 0 24 24" fill="none" xmlns="http://www.w3.org/2000/svg">
<path d="M1.05427 1.16438H0.3525C0.157781 1.16438 0 1.32216 0 1.51688V2.17491C0 2.36963 0.157781 2.52741 0.3525 2.52741C0.547219 2.52741 0.705 2.36959 0.705 2.17487V1.86938H1.05427C1.24898 1.86938 1.40677 1.7116 1.40677 1.51688C1.40677 1.32216 1.24898 1.16438 1.05427 1.16438Z" fill="#61796D"/>
<path d="M23.6475 1.16438H22.9457C22.751 1.16438 22.5932 1.32216 22.5932 1.51688C22.5932 1.7116 22.751 1.86938 22.9457 1.86938H23.295V2.17491C23.295 2.36963 23.4528 2.52741 23.6475 2.52741C23.8422 2.52741 24 2.36959 24 2.17487V1.51688C24 1.32216 23.8422 1.16438 23.6475 1.16438Z" fill="#61796D"/>
<path d="M1.05427 21.7587H0.705V21.4533C0.705 21.2585 0.547219 21.1008 0.3525 21.1008C0.157781 21.1008 0 21.2585 0 21.4533V22.1112C0 22.306 0.157781 22.4637 0.3525 22.4637H1.05427C1.24898 22.4637 1.40677 22.306 1.40677 22.1112C1.40677 21.9165 1.24898 21.7587 1.05427 21.7587Z" fill="#61796D"/>
<path d="M23.6475 21.1008C23.4528 21.1008 23.295 21.2585 23.295 21.4533V21.7587H22.9457C22.751 21.7587 22.5932 21.9165 22.5932 22.1112C22.5932 22.306 22.751 22.4637 22.9457 22.4637H23.6475C23.8422 22.4637 24 22.306 24 22.1112V21.4533C24 21.2585 23.8422 21.1008 23.6475 21.1008Z" fill="#61796D"/>
<path d="M12.0041 6.14397C11.8094 6.14397 11.6516 6.30175 11.6516 6.49647V7.90647C11.6516 8.10119 11.8094 8.25897 12.0041 8.25897C12.1988 8.25897 12.3566 8.10119 12.3566 7.90647V6.49647C12.3566 6.30175 12.1988 6.14397 12.0041 6.14397Z" fill="#61796D"/>
<path d="M21.3121 16.1587V11.7885C21.3121 11.5938 21.1543 11.436 20.9596 11.436C20.7649 11.436 20.6071 11.5938 20.6071 11.7885V16.1587C20.3649 16.2203 20.1473 16.3439 19.9718 16.5114L18.9577 16.0131C18.7829 15.9272 18.5717 15.9993 18.4859 16.174C18.4 16.3487 18.472 16.56 18.6468 16.6458L19.5951 17.1118C19.5512 17.2491 19.5273 17.3953 19.5273 17.547C19.5273 17.6155 19.5325 17.6828 19.5418 17.7488L13.1247 20.513C12.9326 20.2716 12.6645 20.0934 12.3567 20.0151V13.5525C12.3954 13.5662 12.4352 13.5729 12.4745 13.5729C12.6047 13.5729 12.7299 13.5005 12.7912 13.3758C12.877 13.201 12.805 12.9898 12.6303 12.9039L12.3567 12.7695V11.8334C12.9765 11.6758 13.4363 11.1132 13.4363 10.4451C13.4363 10.3653 13.4295 10.2872 13.4169 10.2109L19.8304 7.40049C20.0232 7.64734 20.2946 7.82977 20.607 7.90913V9.25046C20.607 9.44518 20.7648 9.60296 20.9595 9.60296C21.1542 9.60296 21.312 9.44518 21.312 9.25046V7.90913C21.9318 7.75168 22.3918 7.18899 22.3918 6.52088C22.3918 5.73113 21.7493 5.08862 20.9595 5.08862C20.5012 5.08862 20.0928 5.30527 19.8304 5.64127L13.417 2.83088C13.4296 2.75462 13.4364 2.67648 13.4364 2.5967C13.4364 1.80695 12.7939 1.16438 12.0041 1.16438C11.2143 1.16438 10.5718 1.8069 10.5718 2.5967C10.5718 2.67652 10.5787 2.75471 10.5913 2.83102L4.17166 5.64413C3.90939 5.30654 3.49994 5.08866 3.04033 5.08866C2.25058 5.08866 1.60806 5.73118 1.60806 6.52093C1.60806 7.19213 2.07231 7.75674 2.6965 7.9112V16.1567C2.07231 16.3111 1.60806 16.8758 1.60806 17.547C1.60806 18.3367 2.25058 18.9793 3.04033 18.9793C3.51166 18.9793 3.93044 18.7503 4.19158 18.3979L5.86248 19.1176C5.90791 19.1371 5.9552 19.1464 6.00175 19.1464C6.1383 19.1464 6.26823 19.0666 6.3257 18.9332C6.40267 18.7545 6.32017 18.547 6.14139 18.47L4.45858 17.7452C4.46758 17.6804 4.47259 17.6143 4.47259 17.547C4.47259 17.3966 4.4492 17.2517 4.40603 17.1155L5.36177 16.6458C5.53652 16.56 5.60852 16.3487 5.52269 16.174C5.43686 15.9993 5.22559 15.9273 5.05084 16.0131L4.03108 16.5142C3.85717 16.3473 3.64164 16.2235 3.40145 16.1609V7.90698C3.71139 7.82616 3.9805 7.64368 4.17161 7.39768L10.5913 10.2108C10.5787 10.2871 10.5718 10.3653 10.5718 10.4451C10.5718 11.1133 11.0318 11.6761 11.6517 11.8335V12.7696L11.3782 12.9039C11.2035 12.9898 11.1315 13.201 11.2173 13.3758C11.2786 13.5005 11.4038 13.5729 11.5339 13.5729C11.5733 13.5729 11.6131 13.5663 11.6517 13.5525V20.015C11.3439 20.0932 11.0757 20.2714 10.8835 20.5128L8.42908 19.4556C8.25034 19.3785 8.04288 19.4611 7.96591 19.6398C7.88889 19.8186 7.97134 20.026 8.15017 20.103L10.5936 21.1555C10.5795 21.2361 10.5717 21.3188 10.5717 21.4033C10.5717 22.1931 11.2143 22.8356 12.004 22.8356C12.7938 22.8356 13.4363 22.1931 13.4363 21.4033C13.4363 21.3188 13.4285 21.2362 13.4144 21.1557L19.8102 18.4007C20.0715 18.7516 20.4894 18.9793 20.9595 18.9793C21.7492 18.9793 22.3918 18.3368 22.3918 17.547C22.3919 16.8789 21.9319 16.3162 21.3121 16.1587ZM20.9596 5.79366C21.3606 5.79366 21.6869 6.11991 21.6869 6.52093C21.6869 6.92195 21.3606 7.2482 20.9596 7.2482C20.5586 7.2482 20.2323 6.92195 20.2323 6.52093C20.2323 6.11991 20.5586 5.79366 20.9596 5.79366ZM3.76759 17.547C3.76759 17.948 3.44134 18.2743 3.04033 18.2743C2.63931 18.2743 2.31306 17.948 2.31306 17.547C2.31306 17.1459 2.63931 16.8197 3.04033 16.8197C3.44134 16.8197 3.76759 17.1459 3.76759 17.547ZM3.71242 6.7981C3.71064 6.80185 3.70853 6.80537 3.70689 6.80921C3.70572 6.81188 3.70492 6.81465 3.7038 6.81737C3.59003 7.07087 3.33573 7.2482 3.04038 7.2482C2.63936 7.2482 2.31311 6.92195 2.31311 6.52093C2.31311 6.11991 2.63936 5.79366 3.04038 5.79366C3.44139 5.79366 3.76764 6.11991 3.76764 6.52093C3.76759 6.61909 3.74781 6.7126 3.71242 6.7981ZM12.0041 1.86938C12.4052 1.86938 12.7314 2.19563 12.7314 2.5967C12.7314 2.99771 12.4052 3.32396 12.0041 3.32396C11.6031 3.32396 11.2768 2.99771 11.2768 2.5967C11.2768 2.19563 11.6031 1.86938 12.0041 1.86938ZM10.8751 9.56546L4.45375 6.75165C4.46598 6.67651 4.47259 6.59949 4.47259 6.52093C4.47259 6.44237 4.46598 6.36535 4.45375 6.29021L10.8751 3.4764C11.0678 3.7232 11.3393 3.90563 11.6516 3.98499V5.08651C11.6516 5.28123 11.8094 5.43901 12.0041 5.43901C12.1988 5.43901 12.3566 5.28123 12.3566 5.08651V3.98495C12.669 3.90559 12.9405 3.7231 13.1333 3.47621L19.5468 6.2867C19.5342 6.36296 19.5274 6.44115 19.5274 6.52093C19.5274 6.60071 19.5342 6.6789 19.5469 6.75516L13.1333 9.5656C12.9101 9.27966 12.5811 9.0804 12.2055 9.02734C12.1484 8.98749 12.079 8.96396 12.0041 8.96396C11.9292 8.96396 11.8599 8.98749 11.8028 9.02734C11.4273 9.0804 11.0983 9.27962 10.8751 9.56546ZM11.2768 10.4452C11.2768 10.0441 11.6031 9.7179 12.0041 9.7179C12.4052 9.7179 12.7314 10.0441 12.7314 10.4452C12.7314 10.8462 12.4052 11.1725 12.0041 11.1725C11.6031 11.1725 11.2768 10.8462 11.2768 10.4452ZM12.0041 22.1306C11.6031 22.1306 11.2768 21.8044 11.2768 21.4033C11.2768 21.0023 11.6031 20.6761 12.0041 20.6761C12.4052 20.6761 12.7314 21.0023 12.7314 21.4033C12.7314 21.8044 12.4052 22.1306 12.0041 22.1306ZM20.9596 18.2743C20.666 18.2743 20.413 18.099 20.2983 17.8479C20.2946 17.8359 20.2903 17.8241 20.2853 17.8123C20.2828 17.8066 20.2798 17.8012 20.2771 17.7957C20.2487 17.7179 20.2323 17.6344 20.2323 17.547C20.2323 17.4178 20.2666 17.2966 20.3259 17.1913C20.3488 17.1667 20.3686 17.1385 20.3841 17.1068C20.3852 17.1046 20.3859 17.1024 20.3869 17.1002C20.5202 16.9299 20.727 16.8197 20.9596 16.8197H20.9597C21.3607 16.8197 21.6869 17.1459 21.6869 17.547C21.6869 17.948 21.3606 18.2743 20.9596 18.2743Z" fill="#61796D"/>
<path d="M10.5847 13.6867C10.4988 13.512 10.2876 13.44 10.1128 13.5258L8.84733 14.1476C8.67258 14.2335 8.60058 14.4447 8.68641 14.6195C8.74767 14.7442 8.87292 14.8166 9.00305 14.8166C9.05522 14.8166 9.10824 14.8049 9.15825 14.7804L10.4237 14.1586C10.5985 14.0727 10.6705 13.8615 10.5847 13.6867Z" fill="#61796D"/>
<path d="M8.0537 14.9303C7.96783 14.7556 7.75651 14.6836 7.58186 14.7694L6.31632 15.3913C6.14157 15.4771 6.06957 15.6884 6.1554 15.8631C6.21667 15.9878 6.34182 16.0602 6.47204 16.0602C6.52421 16.0602 6.57723 16.0485 6.62725 16.024L7.89278 15.4022C8.06753 15.3163 8.13953 15.105 8.0537 14.9303Z" fill="#61796D"/>
<path d="M15.1613 14.1476L13.8959 13.5258C13.7211 13.44 13.5098 13.512 13.424 13.6867C13.3382 13.8615 13.4102 14.0727 13.5849 14.1586L14.8504 14.7804C14.9004 14.805 14.9534 14.8166 15.0056 14.8166C15.1358 14.8166 15.261 14.7442 15.3223 14.6195C15.4081 14.4447 15.3361 14.2335 15.1613 14.1476Z" fill="#61796D"/>
<path d="M17.6923 15.3913L16.4268 14.7695C16.252 14.6837 16.0408 14.7557 15.955 14.9304C15.8692 15.1051 15.9412 15.3164 16.1159 15.4022L17.3814 16.024C17.4314 16.0486 17.4844 16.0602 17.5366 16.0602C17.6668 16.0602 17.792 15.9878 17.8532 15.8631C17.9391 15.6884 17.8671 15.4771 17.6923 15.3913Z" fill="#61796D"/>
</svg>
