<svg width="24" height="24" viewBox="0 0 24 24" fill="none" xmlns="http://www.w3.org/2000/svg">
<path d="M21.6 10.8H22.4V2.79999C22.4 2.5791 22.2209 2.39999 22 2.39999H18V3.19999H21.6V10.8Z" fill="#61796D"/>
<path d="M0.0560547 21.1977C0.0734375 21.273 0.0964844 21.3473 0.125195 21.4191C0.137695 21.4496 0.156836 21.4764 0.171289 21.5057C0.200781 21.5697 0.23457 21.632 0.272461 21.6916C0.327148 21.7717 0.388672 21.8469 0.456836 21.916C0.461523 21.9207 0.464453 21.9264 0.469141 21.9309C0.474023 21.9352 0.479297 21.9385 0.483984 21.9432C0.553125 22.0113 0.62832 22.0729 0.708399 22.1275C0.767969 22.1654 0.830274 22.1992 0.894336 22.2287C0.923633 22.2432 0.950391 22.2623 0.980859 22.2748C1.05273 22.3035 1.12695 22.3266 1.20234 22.3439C1.2293 22.3508 1.25352 22.3623 1.28242 22.3676C1.38691 22.3891 1.49336 22.3998 1.6 22.4H10.8V21.6H1.6C1.54629 21.6 1.49258 21.5947 1.44004 21.584C1.42168 21.5805 1.40449 21.5729 1.38633 21.5676C1.35371 21.5598 1.32168 21.5498 1.29043 21.5377C1.26289 21.5252 1.23613 21.5111 1.21035 21.4955C1.1916 21.4848 1.17031 21.4764 1.15352 21.4648C1.0666 21.4061 0.991797 21.3313 0.933203 21.2443C0.92168 21.2264 0.913281 21.2064 0.902344 21.1877C0.886719 21.1617 0.872852 21.1352 0.860352 21.1076C0.848242 21.0764 0.838086 21.0443 0.830469 21.0115C0.825195 20.9936 0.817578 20.9764 0.814063 20.958C0.766602 20.7225 0.827344 20.4783 0.979688 20.2926C1.13203 20.1068 1.35977 19.9994 1.6 20H2.8C3.0209 20 3.2 19.8209 3.2 19.6V3.2H13.2V2.4H3.2V0.4C3.2 0.179102 3.0209 0 2.8 0H1.6C0.716406 0 0 0.716406 0 1.6V20.8C0 20.9074 0.0109375 21.0146 0.0324219 21.1199C0.0376953 21.1465 0.0492188 21.1707 0.0560547 21.1977ZM0.8 1.6C0.8 1.1582 1.1582 0.8 1.6 0.8H2.4V19.2H1.6C1.31895 19.1996 1.04297 19.2736 0.8 19.4148V1.6Z" fill="#61796D"/>
<path d="M13.6 18.4C13.8209 18.4 14 18.2209 14 18C14.0035 17.2576 13.708 16.5451 13.1805 16.0229C12.8537 15.6904 12.4473 15.4473 12 15.3164V14H12.4C12.6209 14 12.8 13.8209 12.8 13.6V12C12.8 11.7791 12.6209 11.6 12.4 11.6H12V10H9.64004C9.83125 9.06934 10.65 8.40098 11.6 8.4H12V7.2H13.2V6.4H12V5.2C12 4.9791 11.8209 4.8 11.6 4.8H4.79999C4.5791 4.8 4.39999 4.9791 4.39999 5.2V19.6C4.39999 19.8209 4.5791 20 4.79999 20H6.8V18.04C7.73066 18.2313 8.39902 19.05 8.4 20H13.2V19.2H12V18.4H13.6ZM12 13.2H11.2V12.4H12V13.2ZM11.2 6.8V7.63203C9.82363 7.83067 8.80156 9.00938 8.8 10.4C8.8 10.6209 8.9791 10.8 9.2 10.8H11.2V11.6H10.8C10.5791 11.6 10.4 11.7791 10.4 12V12.4H6.8V12C6.8 11.7791 6.62089 11.6 6.4 11.6H5.19999V7.2H6.4C6.62089 7.2 6.8 7.0209 6.8 6.8V5.6H11.2V6.8ZM5.19999 12.4H6V13.2H5.19999V12.4ZM5.19999 5.6H6V6.4H5.19999V5.6ZM5.19999 19.2V18.4H6V19.2H5.19999ZM9.08008 19.2C8.72558 18.0152 7.63672 17.2025 6.4 17.2C6.1791 17.2 6 17.3791 6 17.6H5.19999V14H6.4C6.62089 14 6.8 13.8209 6.8 13.6V13.2H10.4V13.6C10.4 13.8209 10.5791 14 10.8 14H11.2V15.6359C11.2 15.8328 11.343 16.0004 11.5371 16.0313C11.9467 16.0963 12.3244 16.2916 12.6145 16.5881C12.8934 16.8633 13.0834 17.2156 13.16 17.6H11.6C11.3791 17.6 11.2 17.7791 11.2 18V19.2H9.08008Z" fill="#61796D"/>
<path d="M18.4 8.80001H19.6V12.8H20.4V6.80001C20.4 6.57911 20.2209 6.40001 20 6.40001H18.4C18.1791 6.40001 18 6.57911 18 6.80001V8.40001C18 8.62091 18.1791 8.80001 18.4 8.80001ZM19.6 7.20001V8.00001H18.8V7.20001H19.6Z" fill="#61796D"/>
<path d="M23.7531 10.8304C23.6037 10.7685 23.4316 10.8027 23.3172 10.9172L10.9172 23.3171C10.8029 23.4316 10.7686 23.6037 10.8305 23.7531C10.8924 23.9025 11.0383 24 11.2 24H23.6C23.8209 24 24 23.8209 24 23.6V11.2C24 11.0383 23.9025 10.8924 23.7531 10.8304ZM23.2 23.2H12.1656L23.2 12.1656V23.2Z" fill="#61796D"/>
<path d="M16.8305 21.3531C16.8924 21.5025 17.0383 21.6 17.2 21.6H21.2C21.4209 21.6 21.6 21.4209 21.6 21.2V17.2C21.6 17.0383 21.5025 16.8924 21.3531 16.8305C21.2037 16.7685 21.0316 16.8029 20.9172 16.9172L16.9172 20.9172C16.8027 21.0316 16.7685 21.2037 16.8305 21.3531ZM20.8 18.1656V20.8H18.1656L20.8 18.1656Z" fill="#61796D"/>
<path d="M15.2572 14.6061C15.3295 14.7264 15.4596 14.7998 15.6 14.7998C15.7404 14.7998 15.8705 14.7264 15.9428 14.6061L17.1428 12.6061C17.1803 12.5437 17.2 12.4727 17.2 12.4V1.6C17.2 0.716406 16.4836 0 15.6 0C14.7164 0 14 0.716406 14 1.6V12.4C14 12.4727 14.0197 12.5437 14.0572 12.6061L15.2572 14.6061ZM15.6 13.6225L15.1064 12.8H16.0936L15.6 13.6225ZM14.8 12V3.2H16.4V12H14.8ZM15.6 0.8C16.0418 0.8 16.4 1.1582 16.4 1.6V2.4H14.8V1.6C14.8 1.1582 15.1582 0.8 15.6 0.8Z" fill="#61796D"/>
</svg>
