<svg width="26" height="26" viewBox="0 0 26 26" fill="none" xmlns="http://www.w3.org/2000/svg">
<path d="M21.625 1.32812L2.125 12.5781C0.484375 13.5156 0.625 15.9062 2.35938 16.6094L7.75 18.8125V22.75C7.75 24.9531 10.5156 25.8438 11.7812 24.1094L13.8438 21.3438L19.0938 23.5C19.375 23.6406 19.6562 23.6875 19.9375 23.6875C20.3125 23.6875 20.6875 23.5938 21.0625 23.4062C21.6719 23.0312 22.0469 22.4688 22.1875 21.7656L24.9531 3.625C25.2344 1.75 23.2188 0.390625 21.625 1.32812ZM10 22.75V19.75L11.6875 20.4531L10 22.75ZM19.9375 21.4375L12.7188 18.4375L19.3281 8.96875C19.7969 8.21875 18.8594 7.375 18.2031 7.98438L8.26562 16.6094L3.25 14.5L22.75 3.25L19.9375 21.4375Z" fill="#61796D"/>
</svg>
