<svg width="24" height="24" viewBox="0 0 24 24" fill="none" xmlns="http://www.w3.org/2000/svg">
<path d="M22.8984 1.55311H13.5164V0.726562C13.5164 0.325922 13.1905 0 12.7898 0H11.2102C10.8095 0 10.4836 0.325922 10.4836 0.726562V1.55311H4.93744C4.74328 1.55311 4.58588 1.71047 4.58588 1.90467C4.58588 2.09888 4.74328 2.25623 4.93744 2.25623H22.8984C23.1181 2.25623 23.2969 2.43497 23.2969 2.65467V17.4625C23.2969 17.6821 23.1181 17.8609 22.8984 17.8609H1.10156C0.881859 17.8609 0.703125 17.6821 0.703125 17.4625V2.65467C0.703125 2.43497 0.881859 2.25623 1.10156 2.25623H3.53123C3.72539 2.25623 3.8828 2.09888 3.8828 1.90467C3.8828 1.71047 3.72539 1.55311 3.53123 1.55311H1.10156C0.494156 1.55311 0 2.04727 0 2.65467V17.4625C0 18.0699 0.494156 18.564 1.10156 18.564H5.1817L4.10906 20.4412C4.01273 20.6098 4.07128 20.8245 4.23989 20.9208C4.40845 21.0173 4.62323 20.9587 4.71956 20.79L5.99156 18.564H7.51139L4.81748 23.2784C4.81097 23.2898 4.79878 23.2969 4.78561 23.2969H3.35034C3.34402 23.2969 3.3292 23.2969 3.31856 23.2785C3.30797 23.2603 3.31533 23.2475 3.31847 23.2419L3.91594 22.1962C4.01227 22.0276 3.95372 21.8129 3.78511 21.7166C3.61659 21.6203 3.40177 21.6788 3.30548 21.8475L2.70797 22.8931C2.57559 23.1247 2.57653 23.4007 2.71041 23.6315C2.84433 23.8622 3.08353 24 3.35034 24H4.78561C5.05045 24 5.29659 23.8571 5.42798 23.6272L6.10242 22.4469H10.4836V23.2602C10.4836 23.6681 10.8155 24 11.2234 24H12.7766C13.1845 24 13.5164 23.6681 13.5164 23.2602V22.4469H17.8976L18.572 23.6272C18.7034 23.8571 18.9495 24 19.2144 24H20.6497C20.9165 24 21.1557 23.8622 21.2896 23.6315C21.4235 23.4007 21.4244 23.1247 21.292 22.8931L18.8183 18.5641H22.8984C23.5058 18.5641 24 18.0699 24 17.4625V2.65472C24 2.04727 23.5058 1.55311 22.8984 1.55311ZM11.1867 1.55311V0.726562C11.1867 0.713672 11.1972 0.703125 11.2102 0.703125H12.7898C12.8028 0.703125 12.8133 0.713672 12.8133 0.726562V1.55311H11.1867ZM12.8133 18.564V20.1906H11.1867V18.564H12.8133ZM8.3212 18.564H10.4836V20.1906H7.39172L8.3212 18.564ZM12.8133 23.2602C12.8133 23.2804 12.7968 23.2969 12.7766 23.2969H11.2234C11.2032 23.2969 11.1867 23.2804 11.1867 23.2602V22.4469H12.8133V23.2602ZM6.50423 21.7438L6.98995 20.8937H17.01L17.4958 21.7438H6.50423ZM13.5164 20.1906V18.564H15.6788L16.6083 20.1906H13.5164ZM20.6816 23.242C20.6847 23.2475 20.6921 23.2603 20.6815 23.2785C20.6708 23.2969 20.656 23.2969 20.6497 23.2969H19.2144C19.2013 23.2969 19.189 23.2898 19.1825 23.2784L16.4886 18.564H18.0084L20.6816 23.242Z" fill="#61796D"/>
<path d="M5.01094 13.2016H3.8094V3.83286C3.8094 3.43221 3.48348 3.10629 3.08283 3.10629H2.27968C1.87904 3.10629 1.55312 3.43221 1.55312 3.83286V16.6594C1.55312 16.8536 1.71052 17.011 1.90468 17.011H21.7203C22.1209 17.011 22.4468 16.685 22.4468 16.2844V15.4812C22.4468 15.0806 22.1209 14.7547 21.7203 14.7547H5.36251V13.5531C5.36251 13.3589 5.2051 13.2016 5.01094 13.2016ZM2.25624 3.83286C2.25624 3.81996 2.26674 3.80942 2.27968 3.80942H3.08279C3.09573 3.80942 3.10623 3.81996 3.10623 3.83286V13.2016H2.25624V3.83286ZM2.25624 13.9047H4.65938V15.1063V16.3078H2.25624V13.9047ZM21.7203 15.4579C21.7333 15.4579 21.7438 15.4684 21.7438 15.4813V16.2844C21.7438 16.2973 21.7333 16.3078 21.7203 16.3078H5.36251V15.4578H21.7203V15.4579Z" fill="#61796D"/>
<path d="M21.3187 3.10629H15.8828C15.8798 3.10629 15.8595 3.10718 15.8522 3.10784C15.8458 3.1084 15.8261 3.11089 15.8226 3.1115L7.21383 4.60864C6.85861 4.67042 6.6008 4.97698 6.6008 5.33754V6.21251H6.55078C6.15014 6.21251 5.82422 6.53843 5.82422 6.93907V11.625C5.82422 12.0257 6.15014 12.3516 6.55078 12.3516H7.37733V13.2016H6.56405C6.36989 13.2016 6.21248 13.3589 6.21248 13.5531C6.21248 13.7473 6.36989 13.9047 6.56405 13.9047H22.0953C22.2894 13.9047 22.4468 13.7473 22.4468 13.5531C22.4468 13.3589 22.2894 13.2016 22.0953 13.2016H21.6703V3.45786C21.6703 3.26365 21.5129 3.10629 21.3187 3.10629ZM15.5312 12.3516V13.2016H14.2929V12.3516H15.5312ZM7.30392 5.33754C7.30392 5.31964 7.31672 5.3044 7.33434 5.30136L15.5313 3.87579V6.21251H7.30392V5.33754ZM6.52734 11.625V6.93907C6.52734 6.92618 6.53784 6.91564 6.55078 6.91564H15.5312V11.6485H6.55078C6.53784 11.6485 6.52734 11.6379 6.52734 11.625ZM12.0367 12.3516V13.2016H9.63356V12.3516H12.0367ZM8.08045 13.2016V12.3516H8.93044V13.2016H8.08045ZM12.7398 13.2016V12.3516H13.5898V13.2016H12.7398ZM17.7875 13.2016V10.8219C17.7875 10.809 17.798 10.7985 17.811 10.7985H19.3906C19.4036 10.7985 19.4141 10.809 19.4141 10.8219V13.2016H17.7875ZM20.1172 13.2016V10.8219C20.1172 10.4213 19.7913 10.0954 19.3906 10.0954H17.811C17.4103 10.0954 17.0844 10.4213 17.0844 10.8219V13.2016H16.2344V3.80942H20.9672V13.2016H20.1172Z" fill="#61796D"/>
<path d="M20.1539 4.65936H17.0476C16.8535 4.65936 16.6961 4.81672 16.6961 5.01093C16.6961 5.20513 16.8535 5.36249 17.0476 5.36249H20.1539C20.3481 5.36249 20.5055 5.20513 20.5055 5.01093C20.5055 4.81672 20.3481 4.65936 20.1539 4.65936Z" fill="#61796D"/>
<path d="M20.1539 6.21248H17.0476C16.8535 6.21248 16.6961 6.36984 16.6961 6.56404C16.6961 6.75824 16.8535 6.9156 17.0476 6.9156H20.1539C20.3481 6.9156 20.5055 6.75824 20.5055 6.56404C20.5055 6.36988 20.3481 6.21248 20.1539 6.21248Z" fill="#61796D"/>
<path d="M20.1539 7.76566H17.0476C16.8535 7.76566 16.6961 7.92301 16.6961 8.11722C16.6961 8.31142 16.8535 8.46878 17.0476 8.46878H20.1539C20.3481 8.46878 20.5055 8.31142 20.5055 8.11722C20.5055 7.92301 20.3481 7.76566 20.1539 7.76566Z" fill="#61796D"/>
<path d="M13.9547 10.7984C14.3553 10.7984 14.6812 10.4725 14.6812 10.0719V8.49214C14.6812 8.0915 14.3553 7.76558 13.9547 7.76558H8.10388C7.70324 7.76558 7.37732 8.0915 7.37732 8.49214V10.0719C7.37732 10.4725 7.70324 10.7984 8.10388 10.7984H13.9547ZM10.216 10.0953V8.4687H11.8426V10.0953H10.216ZM13.9781 8.49214V10.0719C13.9781 10.0848 13.9676 10.0953 13.9547 10.0953H12.5457V8.4687H13.9547C13.9676 8.4687 13.9781 8.47925 13.9781 8.49214ZM8.08044 10.0719V8.49214C8.08044 8.47925 8.09094 8.4687 8.10388 8.4687H9.5129V10.0953H8.10388C8.09094 10.0953 8.08044 10.0848 8.08044 10.0719Z" fill="#61796D"/>
</svg>
