<svg width="24" height="24" viewBox="0 0 24 24" fill="none" xmlns="http://www.w3.org/2000/svg">
<path d="M20.0109 7.64062H18.4105L18.4218 7.6185C18.4636 7.55625 18.4792 7.48002 18.4651 7.40637C18.451 7.33272 18.4084 7.26762 18.3465 7.22522C18.3161 7.20442 18.2818 7.18983 18.2456 7.18229C18.2095 7.17475 18.1722 7.17441 18.136 7.18127C18.0997 7.18814 18.0651 7.20208 18.0343 7.2223C18.0034 7.24253 17.9768 7.26864 17.956 7.29914L17.9395 7.32825C17.9089 7.3744 17.8922 7.42837 17.8914 7.48375C17.8905 7.53912 17.9056 7.59357 17.9348 7.64062H17.0052C16.9393 7.55203 16.8544 7.4794 16.7566 7.42813C16.6588 7.37687 16.5508 7.34828 16.4404 7.34448C16.3301 7.34069 16.2204 7.3618 16.1193 7.40623C16.0183 7.45067 15.9285 7.51729 15.8567 7.60115L12.734 6.59133C12.7176 6.40813 12.6332 6.23771 12.4974 6.1136C12.3616 5.98949 12.1844 5.92067 12.0004 5.92067C11.8165 5.92067 11.6392 5.98949 11.5034 6.1136C11.3677 6.23771 11.2833 6.40813 11.2668 6.59133L8.16295 7.59511C8.09102 7.50419 7.99865 7.43153 7.89335 7.38303C7.78805 7.33453 7.67279 7.31157 7.55695 7.316C7.4411 7.32044 7.32794 7.35215 7.22665 7.40855C7.12537 7.46496 7.03883 7.54447 6.97406 7.64062H6.06562C6.0948 7.59343 6.10984 7.53886 6.10897 7.48339C6.10809 7.42791 6.09134 7.37385 6.0607 7.32759L6.0442 7.3005C6.00256 7.23857 5.93804 7.1957 5.86481 7.18133C5.79158 7.16696 5.71564 7.18226 5.65368 7.22386C5.59174 7.26665 5.54909 7.33208 5.53496 7.40603C5.52082 7.47999 5.53632 7.55653 5.57812 7.61915L5.58942 7.64062H3.98929C3.82818 7.63985 3.66852 7.67105 3.51955 7.73242C3.37058 7.7938 3.23527 7.88412 3.12146 7.99815C3.00764 8.11219 2.91759 8.24767 2.85651 8.39676C2.79543 8.54585 2.76454 8.70558 2.76562 8.86669V19.5C2.76466 19.6607 2.7957 19.82 2.85691 19.9687C2.91813 20.1173 3.00831 20.2522 3.12219 20.3657C3.23608 20.4791 3.37139 20.5687 3.52026 20.6293C3.66913 20.69 3.82857 20.7204 3.98929 20.7187H10.125V22.9687H8.22272C8.14812 22.9687 8.07659 22.9984 8.02384 23.0511C7.9711 23.1039 7.94147 23.1754 7.94147 23.25C7.94147 23.3246 7.9711 23.3961 8.02384 23.4489C8.07659 23.5016 8.14812 23.5312 8.22272 23.5312H15.7773C15.8519 23.5312 15.9234 23.5016 15.9762 23.4489C16.0289 23.3961 16.0585 23.3246 16.0585 23.25C16.0585 23.1754 16.0289 23.1039 15.9762 23.0511C15.9234 22.9984 15.8519 22.9687 15.7773 22.9687H13.8281V20.7187H20.0109C20.1716 20.7203 20.3311 20.6899 20.4799 20.6293C20.6287 20.5686 20.764 20.479 20.8779 20.3656C20.9917 20.2522 21.0819 20.1172 21.1431 19.9686C21.2043 19.82 21.2353 19.6607 21.2344 19.5V8.86669C21.2355 8.7056 21.2046 8.54589 21.1435 8.39682C21.0824 8.24774 20.9924 8.11227 20.8786 7.99824C20.7648 7.8842 20.6295 7.79388 20.4806 7.73249C20.3317 7.67111 20.172 7.63988 20.0109 7.64062ZM16.4146 7.9064C16.4491 7.9064 16.4828 7.91664 16.5115 7.93581C16.5402 7.95498 16.5626 7.98223 16.5758 8.01411C16.589 8.04599 16.5924 8.08107 16.5857 8.11491C16.579 8.14875 16.5624 8.17984 16.538 8.20424C16.5136 8.22864 16.4825 8.24526 16.4486 8.25199C16.4148 8.25872 16.3797 8.25527 16.3478 8.24206C16.3159 8.22886 16.2887 8.20649 16.2695 8.1778C16.2504 8.14911 16.2401 8.11538 16.2401 8.08087C16.2402 8.03466 16.2585 7.99034 16.2912 7.95764C16.3239 7.92494 16.3681 7.90652 16.4144 7.9064H16.4146ZM16.4146 14.0295C16.4491 14.0296 16.4828 14.0398 16.5115 14.059C16.5402 14.0781 16.5625 14.1054 16.5757 14.1373C16.5889 14.1691 16.5923 14.2042 16.5856 14.238C16.5789 14.2719 16.5623 14.3029 16.5379 14.3273C16.5135 14.3517 16.4824 14.3683 16.4486 14.375C16.4147 14.3818 16.3797 14.3783 16.3478 14.3651C16.3159 14.3519 16.2887 14.3295 16.2695 14.3009C16.2503 14.2722 16.2401 14.2385 16.2401 14.204C16.2402 14.1578 16.2586 14.1135 16.2912 14.0808C16.3239 14.0482 16.3682 14.0298 16.4144 14.0297L16.4146 14.0295ZM15.8737 8.57911C15.9445 8.65481 16.03 8.7153 16.125 8.7569V10.7932L14.6719 11.3553V9.04528L15.8737 8.57911ZM16.125 11.3966V13.5281C16.0013 13.5848 15.8949 13.6734 15.8168 13.7848C15.7386 13.8962 15.6915 14.0264 15.6803 14.1621L14.6719 14.5522V11.9587L16.125 11.3966ZM15.5609 8.0969L14.4052 8.54611L12.955 7.98684L14.0462 7.60715L15.5609 8.0969ZM12 9.96403C11.9655 9.96403 11.9318 9.9538 11.9031 9.93463C11.8744 9.91546 11.852 9.88822 11.8388 9.85635C11.8256 9.82447 11.8222 9.7894 11.8289 9.75556C11.8357 9.72173 11.8523 9.69065 11.8767 9.66626C11.9011 9.64186 11.9322 9.62526 11.966 9.61853C11.9998 9.61181 12.0349 9.61527 12.0668 9.62848C12.0986 9.64169 12.1259 9.66405 12.145 9.69274C12.1642 9.72143 12.1744 9.75515 12.1744 9.78965C12.1744 9.83589 12.156 9.88021 12.1233 9.9129C12.0906 9.94559 12.0462 9.96398 12 9.96403ZM12.1744 15.8843C12.1744 15.9188 12.1642 15.9525 12.145 15.9812C12.1258 16.0099 12.0986 16.0322 12.0667 16.0454C12.0348 16.0586 11.9997 16.062 11.9659 16.0553C11.9321 16.0486 11.901 16.0319 11.8766 16.0076C11.8522 15.9832 11.8356 15.9521 11.8289 15.9182C11.8222 15.8844 11.8257 15.8493 11.8389 15.8175C11.8521 15.7856 11.8744 15.7584 11.9031 15.7392C11.9318 15.7201 11.9655 15.7098 12 15.7098C12.0462 15.7099 12.0906 15.7283 12.1233 15.761C12.156 15.7937 12.1744 15.838 12.1744 15.8842V15.8843ZM12 9.05273C11.9016 9.05272 11.8042 9.07248 11.7136 9.11084C11.623 9.14921 11.5411 9.20539 11.4726 9.27605L10.4221 8.86823L12.1333 8.27269L13.6266 8.84873L12.5273 9.276C12.4589 9.20535 12.3769 9.14918 12.2863 9.11083C12.1957 9.07247 12.0984 9.05272 12 9.05273ZM9.89062 11.5734V9.26489L11.2644 9.79833C11.266 9.94254 11.31 10.0831 11.3907 10.2026C11.4715 10.3221 11.5855 10.4152 11.7187 10.4705V12.2837L9.89062 11.5734ZM11.7187 12.887V15.2032C11.6219 15.2437 11.5348 15.3045 11.4634 15.3814L9.89062 14.7747V12.177L11.7187 12.887ZM12.2812 12.887L14.1094 12.1769V14.7703L12.5362 15.3811C12.4649 15.3043 12.378 15.2435 12.2812 15.203V12.887ZM12.2812 12.2835V10.4705C12.4145 10.4152 12.5285 10.322 12.6093 10.2025C12.6901 10.083 12.734 9.94242 12.7357 9.79819L14.1094 9.2639V11.5734L12.2812 12.2835ZM12 6.4823C12.0345 6.4823 12.0682 6.49253 12.0969 6.51169C12.1256 6.53086 12.1479 6.5581 12.1611 6.58997C12.1743 6.62184 12.1778 6.65691 12.1711 6.69074C12.1643 6.72458 12.1477 6.75566 12.1233 6.78005C12.0989 6.80445 12.0679 6.82106 12.034 6.82779C12.0002 6.83452 11.9651 6.83106 11.9332 6.81786C11.9014 6.80466 11.8741 6.7823 11.855 6.75362C11.8358 6.72494 11.8256 6.69121 11.8256 6.65672C11.8257 6.6105 11.8441 6.5662 11.8768 6.53353C11.9095 6.50086 11.9538 6.48249 12 6.48244V6.4823ZM11.4342 7.12828C11.5032 7.21136 11.5897 7.27821 11.6875 7.3241C11.7853 7.36998 11.892 7.39377 12 7.39377C12.108 7.39377 12.2147 7.36998 12.3125 7.3241C12.4103 7.27821 12.4967 7.21136 12.5658 7.12828L13.1592 7.32019L12.1432 7.67376L11.0505 7.25236L11.4342 7.12828ZM10.2002 7.52733L11.3215 7.95975L9.61303 8.55436L8.43647 8.09775L10.2002 7.52733ZM7.875 8.7284C7.96201 8.69349 8.04066 8.64058 8.10581 8.57315L9.32812 9.04659V11.3553L7.875 10.7932V8.7284ZM7.875 11.3966L9.32812 11.9587V14.5578L8.32158 14.1703C8.32433 14.0263 8.28304 13.8849 8.20323 13.765C8.12343 13.6451 8.00891 13.5525 7.875 13.4994V11.3966ZM7.58564 7.87795C7.62014 7.87795 7.65386 7.88818 7.68254 7.90735C7.71123 7.92651 7.73358 7.95375 7.74678 7.98562C7.75998 8.0175 7.76344 8.05257 7.75671 8.0864C7.74998 8.12024 7.73337 8.15131 7.70897 8.17571C7.68458 8.2001 7.6535 8.21671 7.61967 8.22344C7.58583 8.23017 7.55076 8.22672 7.51889 8.21352C7.48702 8.20032 7.45978 8.17796 7.44061 8.14928C7.42145 8.12059 7.41122 8.08687 7.41122 8.05237C7.41128 8.00613 7.42967 7.9618 7.46237 7.92911C7.49507 7.89641 7.5394 7.87801 7.58564 7.87795ZM7.58564 14.001C7.62013 14.001 7.65385 14.0113 7.68254 14.0304C7.71122 14.0496 7.73358 14.0768 7.74678 14.1087C7.75998 14.1406 7.76344 14.1756 7.75671 14.2095C7.74999 14.2433 7.73338 14.2744 7.70899 14.2988C7.6846 14.3232 7.65353 14.3398 7.61969 14.3465C7.58586 14.3533 7.55079 14.3498 7.51892 14.3366C7.48705 14.3234 7.45981 14.3011 7.44063 14.2724C7.42146 14.2437 7.41123 14.21 7.41122 14.1755C7.41128 14.1293 7.42967 14.0849 7.46237 14.0522C7.49506 14.0195 7.53939 14.0011 7.58564 14.001ZM13.2656 22.9687H10.6875V20.7187H13.2656V22.9687ZM20.6719 19.5C20.6729 19.5869 20.6565 19.6731 20.6236 19.7534C20.5907 19.8338 20.542 19.9068 20.4803 19.968C20.4187 20.0292 20.3454 20.0774 20.2647 20.1098C20.1841 20.1421 20.0978 20.1579 20.0109 20.1562H3.98929C3.90242 20.1579 3.81609 20.1422 3.73543 20.1098C3.65478 20.0775 3.58144 20.0293 3.51977 19.9681C3.4581 19.9069 3.40935 19.8339 3.37643 19.7535C3.34351 19.6731 3.32708 19.5869 3.32812 19.5V18.375H20.6719V19.5ZM20.6719 17.8125H3.32812V8.86669C3.32695 8.77942 3.34323 8.69281 3.37601 8.61193C3.4088 8.53105 3.45742 8.45753 3.51901 8.39571C3.58061 8.33389 3.65395 8.28501 3.73471 8.25194C3.81547 8.21886 3.90203 8.20227 3.98929 8.20312H6.8625C6.88597 8.32307 6.9396 8.43507 7.01833 8.52856C7.09706 8.62205 7.19829 8.69395 7.3125 8.7375V13.4906C7.17421 13.5436 7.05547 13.6376 6.97227 13.7601C6.88906 13.8826 6.84539 14.0276 6.84712 14.1757C6.84719 14.322 6.89082 14.465 6.97244 14.5865C7.05406 14.7079 7.16999 14.8024 7.30546 14.8577C7.44093 14.9131 7.58981 14.9269 7.73314 14.8973C7.87648 14.8678 8.00777 14.7963 8.11031 14.6918L11.2641 15.9082C11.2682 16.1006 11.3476 16.2838 11.4851 16.4184C11.6227 16.553 11.8076 16.6284 12.0001 16.6283C12.1926 16.6282 12.3774 16.5527 12.5149 16.418C12.6524 16.2833 12.7316 16.1001 12.7356 15.9076L15.8647 14.6933C15.964 14.8051 16.0949 14.884 16.2401 14.9197C16.3852 14.9553 16.5378 14.946 16.6775 14.8929C16.8173 14.8398 16.9376 14.7455 17.0224 14.6224C17.1073 14.4994 17.1528 14.3534 17.1528 14.204C17.1546 14.0559 17.1109 13.9108 17.0278 13.7883C16.9446 13.6658 16.8258 13.5717 16.6875 13.5187V8.76562C16.8063 8.72035 16.9109 8.64447 16.9909 8.54568C17.0709 8.4469 17.1233 8.32871 17.1429 8.20312H20.0109C20.0982 8.2023 20.1847 8.21892 20.2654 8.252C20.3462 8.28509 20.4195 8.33398 20.4811 8.3958C20.5426 8.45762 20.5912 8.53112 20.624 8.61198C20.6568 8.69284 20.673 8.77944 20.6719 8.86669V17.8125Z" fill="#61796D"/>
<path d="M12 5.73214C12.0746 5.73214 12.1461 5.70251 12.1989 5.64976C12.2516 5.59702 12.2812 5.52548 12.2812 5.45089V3.19086C12.2812 3.11626 12.2516 3.04473 12.1989 2.99198C12.1461 2.93924 12.0746 2.90961 12 2.90961C11.9254 2.90961 11.8539 2.93924 11.8011 2.99198C11.7484 3.04473 11.7188 3.11626 11.7188 3.19086V5.45089C11.7188 5.52548 11.7484 5.59702 11.8011 5.64976C11.8539 5.70251 11.9254 5.73214 12 5.73214Z" fill="#61796D"/>
<path d="M7.65963 6.38509C7.69075 6.45289 7.74752 6.50554 7.81746 6.53147C7.8874 6.5574 7.96478 6.55449 8.03257 6.52337C8.10036 6.49226 8.15301 6.43548 8.17895 6.36554C8.20488 6.2956 8.20197 6.21823 8.17085 6.15044L7.22191 4.08282C7.20701 4.0485 7.18542 4.0175 7.15838 3.99163C7.13135 3.96576 7.09943 3.94555 7.06449 3.93217C7.02955 3.91879 6.9923 3.91252 6.9549 3.91372C6.91751 3.91492 6.88073 3.92357 6.84672 3.93916C6.81271 3.95475 6.78215 3.97698 6.75683 4.00453C6.73152 4.03208 6.71196 4.0644 6.69929 4.0996C6.68662 4.13481 6.68111 4.17219 6.68306 4.20955C6.68502 4.24691 6.69442 4.28351 6.71069 4.3172L7.65963 6.38509Z" fill="#61796D"/>
<path d="M15.9675 6.57396C16.001 6.58937 16.0373 6.59801 16.0742 6.5994C16.1111 6.60079 16.1479 6.5949 16.1826 6.58206C16.2172 6.56922 16.249 6.54968 16.276 6.52456C16.3031 6.49945 16.325 6.46924 16.3404 6.43568L17.2893 4.36815C17.3204 4.30036 17.3233 4.22299 17.2974 4.15305C17.2715 4.08311 17.2188 4.02633 17.151 3.99522C17.0832 3.9641 17.0058 3.96119 16.9359 3.98712C16.866 4.01305 16.8092 4.06571 16.7781 4.1335L15.8291 6.20102C15.8137 6.23459 15.8051 6.27087 15.8037 6.30778C15.8023 6.34469 15.8082 6.38151 15.8211 6.41614C15.8339 6.45077 15.8534 6.48253 15.8786 6.50961C15.9037 6.53669 15.9339 6.55856 15.9675 6.57396Z" fill="#61796D"/>
<path d="M8.02279 2.16615C8.05322 2.18709 8.08747 2.20184 8.12359 2.20955C8.15972 2.21726 8.19701 2.21778 8.23333 2.21107C8.26966 2.20437 8.3043 2.19058 8.3353 2.17048C8.36629 2.15039 8.39302 2.12439 8.41397 2.09396L8.84432 1.46879L9.28532 3.85815C9.29168 3.89478 9.30525 3.9298 9.32523 3.96116C9.34521 3.99252 9.37121 4.01961 9.40172 4.04086C9.43224 4.06211 9.46667 4.07709 9.50302 4.08495C9.53937 4.0928 9.57691 4.09337 9.61348 4.08662C9.65005 4.07987 9.68491 4.06594 9.71606 4.04562C9.74721 4.02531 9.77402 3.99902 9.79494 3.96828C9.81586 3.93754 9.83048 3.90295 9.83795 3.86652C9.84542 3.83009 9.84558 3.79255 9.83845 3.75605L9.3974 1.36669L10.0226 1.79701C10.084 1.83931 10.1597 1.85547 10.2331 1.84193C10.3064 1.8284 10.3714 1.78628 10.4137 1.72484C10.456 1.6634 10.4722 1.58768 10.4586 1.51432C10.4451 1.44097 10.403 1.37599 10.3416 1.33369L9.15717 0.518349C9.12674 0.497402 9.09249 0.482652 9.05637 0.474943C9.02024 0.467234 8.98295 0.466717 8.94663 0.47342C8.91031 0.480123 8.87566 0.493917 8.84466 0.514012C8.81367 0.534107 8.78694 0.56011 8.766 0.590537L7.95037 1.77497C7.92944 1.80541 7.9147 1.83968 7.90701 1.87581C7.89932 1.91194 7.89882 1.94924 7.90555 1.98556C7.91227 2.02189 7.92609 2.05653 7.94621 2.08752C7.96632 2.1185 7.99235 2.14522 8.02279 2.16615Z" fill="#61796D"/>
<path d="M9.66179 5.89751C9.67537 5.97086 9.71752 6.03581 9.77899 6.07808C9.84045 6.12035 9.91619 6.13647 9.98954 6.12289C10.0629 6.10931 10.1278 6.06716 10.1701 6.00569C10.2124 5.94422 10.2285 5.86848 10.2149 5.79513L10.2096 5.76621C10.2028 5.72988 10.189 5.69523 10.1689 5.66424C10.1488 5.63325 10.1227 5.60653 10.0923 5.5856C10.0618 5.56467 10.0276 5.54994 9.99143 5.54225C9.95529 5.53457 9.91799 5.53408 9.88166 5.54081C9.84533 5.54754 9.81068 5.56136 9.77969 5.58149C9.7487 5.60161 9.72197 5.62764 9.70104 5.65809C9.68011 5.68854 9.66539 5.72281 9.6577 5.75895C9.65002 5.7951 9.64953 5.8324 9.65626 5.86873L9.66179 5.89751Z" fill="#61796D"/>
<path d="M10.0009 4.63595L9.99839 4.62245C9.99162 4.58613 9.97776 4.5515 9.9576 4.52054C9.93745 4.48958 9.91139 4.46289 9.88092 4.44199C9.85045 4.4211 9.81617 4.40641 9.78002 4.39877C9.74388 4.39113 9.70658 4.39068 9.67026 4.39745C9.63394 4.40422 9.59931 4.41808 9.56835 4.43823C9.53738 4.45839 9.51069 4.48444 9.4898 4.51491C9.44761 4.57645 9.43158 4.65223 9.44526 4.72558L9.44779 4.73908C9.45456 4.77539 9.46842 4.81002 9.48857 4.84099C9.50873 4.87195 9.53478 4.89864 9.56525 4.91953C9.59572 4.94043 9.63001 4.95511 9.66616 4.96276C9.7023 4.9704 9.7396 4.97085 9.77592 4.96408C9.81224 4.9573 9.84687 4.94345 9.87783 4.92329C9.90879 4.90314 9.93548 4.87708 9.95638 4.84661C9.97727 4.81614 9.99196 4.78186 9.9996 4.74571C10.0072 4.70957 10.0077 4.67227 10.0009 4.63595Z" fill="#61796D"/>
<path d="M2.92776 4.65223L3.07162 3.90692L4.43282 5.91954C4.45352 5.95014 4.48003 5.97636 4.51086 5.9967C4.54168 6.01705 4.57621 6.03113 4.61248 6.03813C4.64874 6.04513 4.68603 6.04492 4.72221 6.03751C4.7584 6.0301 4.79277 6.01563 4.82336 5.99494C4.85396 5.97425 4.88017 5.94773 4.90052 5.91691C4.92087 5.88608 4.93494 5.85155 4.94194 5.81529C4.94895 5.77902 4.94874 5.74173 4.94133 5.70555C4.93392 5.66937 4.91945 5.635 4.89876 5.6044L3.53756 3.59187L4.28287 3.73573C4.31922 3.74296 4.35664 3.74293 4.39298 3.73565C4.42933 3.72837 4.46387 3.71397 4.49463 3.6933C4.52539 3.67262 4.55176 3.64607 4.57222 3.61516C4.59268 3.58426 4.60684 3.54962 4.61387 3.51323C4.6209 3.47684 4.62066 3.43941 4.61318 3.40311C4.6057 3.36681 4.59112 3.33235 4.57028 3.3017C4.54943 3.27106 4.52273 3.24483 4.49172 3.22454C4.46071 3.20424 4.42599 3.19028 4.38956 3.18345L2.97754 2.91092C2.94127 2.90391 2.90398 2.90411 2.86778 2.91152C2.83159 2.91892 2.79721 2.93338 2.76661 2.95408C2.73601 2.97477 2.70979 3.00129 2.68944 3.03212C2.66909 3.06295 2.65501 3.09749 2.64801 3.13376L2.37543 4.54564C2.36129 4.61888 2.37682 4.69474 2.41862 4.75653C2.46041 4.81832 2.52503 4.86098 2.59828 4.87512C2.67152 4.88926 2.74738 4.87373 2.80917 4.83194C2.87096 4.79015 2.91362 4.72552 2.92776 4.65228V4.65223Z" fill="#61796D"/>
<path d="M4.92657 6.64955L4.93426 6.66098C4.97621 6.72227 5.0407 6.76449 5.11365 6.7784C5.18661 6.79232 5.26211 6.77682 5.32367 6.73527C5.38524 6.69373 5.42787 6.62952 5.44227 6.55666C5.45667 6.4838 5.44166 6.4082 5.40052 6.34636L5.39284 6.33497C5.37239 6.30388 5.34597 6.27716 5.31512 6.25635C5.28427 6.23555 5.2496 6.22107 5.21311 6.21376C5.17663 6.20645 5.13905 6.20646 5.10257 6.21377C5.06608 6.22109 5.03141 6.23557 5.00057 6.25638C4.96972 6.2772 4.94331 6.30392 4.92287 6.33501C4.90242 6.36611 4.88835 6.40094 4.88147 6.43751C4.87459 6.47408 4.87503 6.51165 4.88277 6.54805C4.89051 6.58445 4.9054 6.61894 4.92657 6.64955Z" fill="#61796D"/>
<path d="M13.9774 1.79699L14.6025 1.36668L14.1615 3.75604C14.1544 3.79253 14.1545 3.83008 14.162 3.86651C14.1695 3.90294 14.1841 3.93752 14.205 3.96826C14.2259 3.99901 14.2527 4.02529 14.2839 4.04561C14.315 4.06592 14.3499 4.07985 14.3865 4.0866C14.423 4.09335 14.4606 4.09278 14.4969 4.08493C14.5333 4.07707 14.5677 4.06209 14.5982 4.04084C14.6287 4.01959 14.6547 3.99251 14.6747 3.96114C14.6947 3.92978 14.7083 3.89477 14.7146 3.85813L15.1556 1.46877L15.5859 2.09394C15.6065 2.1251 15.6332 2.15184 15.6642 2.17259C15.6953 2.19335 15.7302 2.20771 15.7669 2.21483C15.8035 2.22196 15.8413 2.2217 15.8778 2.21408C15.9144 2.20646 15.9491 2.19163 15.9799 2.17046C16.0107 2.14929 16.0369 2.12219 16.0571 2.09076C16.0773 2.05932 16.091 2.02418 16.0975 1.98738C16.104 1.95059 16.103 1.91287 16.0947 1.87644C16.0865 1.84 16.071 1.80559 16.0493 1.77519L15.234 0.590613C15.213 0.560186 15.1863 0.534183 15.1553 0.514088C15.1243 0.493993 15.0897 0.4802 15.0534 0.473496C15.017 0.466793 14.9797 0.467311 14.9436 0.47502C14.9075 0.482729 14.8732 0.497478 14.8428 0.518425L13.6584 1.33368C13.5969 1.37598 13.5548 1.44095 13.5413 1.5143C13.5278 1.58766 13.5439 1.66339 13.5862 1.72482C13.6285 1.78626 13.6935 1.82838 13.7668 1.84192C13.8402 1.85545 13.9159 1.83929 13.9774 1.79699Z" fill="#61796D"/>
<path d="M14.1182 5.54087C14.0449 5.52731 13.9691 5.54343 13.9077 5.58569C13.8462 5.62796 13.8041 5.6929 13.7905 5.76624L13.7852 5.79517C13.7784 5.83148 13.7789 5.86877 13.7866 5.9049C13.7943 5.94102 13.809 5.97528 13.83 6.00572C13.8509 6.03615 13.8776 6.06217 13.9086 6.08228C13.9396 6.10238 13.9742 6.11619 14.0105 6.12292C14.0468 6.12964 14.0841 6.12914 14.1203 6.12145C14.1564 6.11376 14.1906 6.09904 14.2211 6.07811C14.2515 6.05718 14.2775 6.03046 14.2976 5.99948C14.3177 5.9685 14.3315 5.93386 14.3383 5.89754L14.3438 5.86876C14.3505 5.83242 14.35 5.7951 14.3423 5.75895C14.3346 5.7228 14.3199 5.68851 14.2989 5.65806C14.278 5.62761 14.2512 5.60158 14.2202 5.58148C14.1892 5.56137 14.1545 5.54757 14.1182 5.54087Z" fill="#61796D"/>
<path d="M14.5521 4.73903L14.5546 4.72553C14.5683 4.65218 14.5522 4.5764 14.5101 4.51487C14.4679 4.45333 14.4029 4.41108 14.3296 4.39741C14.2562 4.38373 14.1805 4.39975 14.1189 4.44195C14.0574 4.48414 14.0151 4.54906 14.0015 4.62241L13.9989 4.63591C13.9922 4.67222 13.9926 4.70952 14.0003 4.74567C14.0079 4.78181 14.0226 4.8161 14.0435 4.84657C14.0644 4.87704 14.0911 4.90309 14.122 4.92325C14.153 4.9434 14.1876 4.95726 14.2239 4.96403C14.2603 4.9708 14.2976 4.97035 14.3337 4.96271C14.3698 4.95507 14.4041 4.94038 14.4346 4.91949C14.4651 4.89859 14.4911 4.8719 14.5113 4.84094C14.5314 4.80998 14.5453 4.77535 14.5521 4.73903Z" fill="#61796D"/>
<path d="M21.352 3.13378C21.345 3.09751 21.3309 3.06297 21.3106 3.03214C21.2902 3.00131 21.264 2.97479 21.2334 2.95409C21.2028 2.9334 21.1684 2.91894 21.1322 2.91153C21.096 2.90413 21.0587 2.90392 21.0225 2.91093L19.6106 3.18351C19.5743 3.19052 19.5398 3.2046 19.5089 3.22495C19.4781 3.24531 19.4516 3.27154 19.4309 3.30214C19.4102 3.33274 19.3957 3.36712 19.3883 3.40332C19.3809 3.43951 19.3807 3.47681 19.3877 3.51309C19.3947 3.54937 19.4088 3.58391 19.4291 3.61474C19.4495 3.64557 19.4757 3.6721 19.5063 3.69279C19.5369 3.71349 19.5713 3.72796 19.6075 3.73537C19.6437 3.74278 19.681 3.74299 19.7173 3.73598L20.4626 3.59212L19.1014 5.60475C19.0807 5.63534 19.0662 5.66971 19.0588 5.70589C19.0514 5.74208 19.0512 5.77937 19.0582 5.81563C19.0652 5.8519 19.0793 5.88643 19.0996 5.91725C19.12 5.94808 19.1462 5.97459 19.1768 5.99529C19.2074 6.01598 19.2417 6.03044 19.2779 6.03785C19.3141 6.04526 19.3514 6.04547 19.3877 6.03847C19.4239 6.03147 19.4585 6.01739 19.4893 5.99705C19.5201 5.9767 19.5466 5.95048 19.5673 5.91989L20.9284 3.90707L21.0722 4.65239C21.0793 4.68865 21.0933 4.72319 21.1137 4.75401C21.134 4.78484 21.1602 4.81135 21.1908 4.83205C21.2526 4.87384 21.3285 4.88937 21.4017 4.87523C21.438 4.86823 21.4725 4.85415 21.5034 4.8338C21.5342 4.81346 21.5607 4.78724 21.5814 4.75664C21.6021 4.72605 21.6166 4.69167 21.624 4.65549C21.6314 4.6193 21.6316 4.58201 21.6246 4.54575L21.352 3.13378Z" fill="#61796D"/>
<path d="M18.6754 6.73683C18.7372 6.77854 18.8131 6.79399 18.8863 6.77978C18.9595 6.76556 19.0241 6.72285 19.0658 6.66103L19.0735 6.64959C19.1142 6.58775 19.1288 6.51236 19.1143 6.43978C19.0998 6.3672 19.0572 6.30328 18.9958 6.26188C18.9345 6.22048 18.8592 6.20494 18.7865 6.21863C18.7138 6.23232 18.6493 6.27414 18.6072 6.33501L18.5995 6.3464C18.5578 6.40824 18.5424 6.4841 18.5566 6.55732C18.5708 6.63054 18.6136 6.69511 18.6754 6.73683Z" fill="#61796D"/>
<path d="M4.17188 8.93115C4.09728 8.93115 4.02575 8.96078 3.973 9.01353C3.92026 9.06627 3.89062 9.13781 3.89062 9.2124V9.35678C3.89062 9.43137 3.92026 9.50291 3.973 9.55565C4.02575 9.6084 4.09728 9.63803 4.17188 9.63803C4.24647 9.63803 4.318 9.6084 4.37075 9.55565C4.42349 9.50291 4.45312 9.43137 4.45312 9.35678V9.2124C4.45312 9.13781 4.42349 9.06627 4.37075 9.01353C4.318 8.96078 4.24647 8.93115 4.17188 8.93115Z" fill="#61796D"/>
<path d="M4.17188 10.0723C4.09728 10.0723 4.02575 10.102 3.973 10.1547C3.92026 10.2075 3.89062 10.279 3.89062 10.3536V13.1843C3.89062 13.2589 3.92026 13.3305 3.973 13.3832C4.02575 13.4359 4.09728 13.4656 4.17188 13.4656C4.24647 13.4656 4.318 13.4359 4.37075 13.3832C4.42349 13.3305 4.45312 13.2589 4.45312 13.1843V10.3536C4.45312 10.279 4.42349 10.2075 4.37075 10.1547C4.318 10.102 4.24647 10.0723 4.17188 10.0723Z" fill="#61796D"/>
</svg>
