<svg width="22" height="22" viewBox="0 0 22 22" fill="none" xmlns="http://www.w3.org/2000/svg">
<path d="M6.5 18.5C6.5 16.8594 5.14062 15.5 3.5 15.5C1.8125 15.5 0.5 16.8594 0.5 18.5C0.5 20.1875 1.8125 21.5 3.5 21.5C5.14062 21.5 6.5 20.1875 6.5 18.5ZM14.7031 20.75C14.3281 13.4844 8.51562 7.67188 1.25 7.29688C0.828125 7.25 0.5 7.625 0.5 8.04688V10.2969C0.5 10.6719 0.78125 11 1.15625 11.0469C6.40625 11.375 10.625 15.5938 10.9531 20.8438C11 21.2188 11.3281 21.5 11.7031 21.5H13.9531C14.375 21.5 14.75 21.1719 14.7031 20.75ZM21.4531 20.75C21.0781 9.78125 12.2656 0.921875 1.25 0.546875C0.828125 0.5 0.5 0.828125 0.5 1.29688V3.54688C0.5 3.92188 0.78125 4.25 1.20312 4.29688C10.1562 4.625 17.375 11.8438 17.7031 20.7969C17.75 21.2188 18.0781 21.5469 18.4531 21.5469H20.7031C21.1719 21.5 21.5 21.1719 21.4531 20.75Z" fill="#61796D"/>
</svg>
