<svg width="20" height="21" viewBox="0 0 20 21" fill="none" xmlns="http://www.w3.org/2000/svg">
<path d="M10 0.8125C4.64844 0.8125 0.3125 5.14844 0.3125 10.5C0.3125 15.8516 4.64844 20.1875 10 20.1875C15.3516 20.1875 19.6875 15.8516 19.6875 10.5C19.6875 5.14844 15.3516 0.8125 10 0.8125ZM14.7266 7.45312L13.1641 14.9531C13.0469 15.5 12.7344 15.6172 12.2656 15.3828L9.84375 13.5859L8.67188 14.7188C8.55469 14.8359 8.4375 14.9531 8.20312 14.9531L8.35938 12.4922L12.8516 8.42969C13.0469 8.27344 12.8125 8.15625 12.5391 8.3125L6.99219 11.8281L4.60938 11.0859C4.10156 10.9297 4.10156 10.5391 4.72656 10.3047L14.0625 6.71094C14.4922 6.55469 14.8828 6.82812 14.7266 7.45312Z" fill="black"/>
</svg>
