<svg width="24" height="24" viewBox="0 0 24 24" fill="none" xmlns="http://www.w3.org/2000/svg">
<path d="M4.875 10.5H1.125C0.46875 10.5 0 11.0156 0 11.625V22.875C0 23.5312 0.46875 24 1.125 24H4.875C5.48438 24 6 23.5312 6 22.875V11.625C6 11.0156 5.48438 10.5 4.875 10.5ZM3 22.125C2.34375 22.125 1.875 21.6562 1.875 21C1.875 20.3906 2.34375 19.875 3 19.875C3.60938 19.875 4.125 20.3906 4.125 21C4.125 21.6562 3.60938 22.125 3 22.125ZM18 3.84375C18 0.375 15.75 0 14.625 0C13.6406 0 13.2188 1.875 13.0312 2.71875C12.75 3.75 12.5156 4.78125 11.8125 5.48438C10.3125 7.03125 9.51562 8.95312 7.64062 10.7812C7.54688 10.9219 7.5 11.0625 7.5 11.2031V21.2344C7.5 21.5156 7.73438 21.75 8.01562 21.7969C8.76562 21.7969 9.75 22.2188 10.5 22.5469C12 23.2031 13.8281 24 16.0781 24H16.2188C18.2344 24 20.625 24 21.5625 22.6406C21.9844 22.0781 22.0781 21.375 21.8438 20.5312C22.6406 19.7344 23.0156 18.2344 22.6406 17.0156C23.4375 15.9375 23.5312 14.3906 23.0625 13.3125C23.625 12.75 24 11.8594 23.9531 11.0156C23.9531 9.5625 22.7344 8.25 21.1875 8.25H16.4062C16.7812 6.9375 18 5.8125 18 3.84375Z" fill="#61796D"/>
</svg>
