<svg width="60" height="60" viewBox="0 0 60 60" fill="none" xmlns="http://www.w3.org/2000/svg">
<circle cx="30" cy="30" r="30" fill="#61796D"/>
<path d="M42.6875 17.6562C39.4844 14.375 35.1094 12.5 30.4219 12.5C20.8906 12.5 13.0781 20.3125 13.0781 29.8438C13.0781 32.9688 13.9375 35.9375 15.4219 38.5156L13 47.5L22.1406 45.1562C24.7188 46.4844 27.5312 47.2656 30.4219 47.2656C40.0312 47.2656 48 39.4531 48 29.9219C48 25.2344 45.9688 20.9375 42.6875 17.6562ZM30.4219 44.2969C27.8438 44.2969 25.3438 43.5938 23.0781 42.2656L22.6094 41.9531L17.1406 43.4375L18.625 38.125L18.2344 37.5781C16.8281 35.2344 16.0469 32.5781 16.0469 29.8438C16.0469 21.9531 22.5312 15.4688 30.5 15.4688C34.3281 15.4688 37.9219 16.9531 40.6562 19.6875C43.3906 22.4219 45.0312 26.0156 45.0312 29.9219C45.0312 37.8125 38.3906 44.2969 30.4219 44.2969ZM38.3906 33.5156C37.9219 33.2812 35.8125 32.2656 35.4219 32.1094C35.0312 31.9531 34.7188 31.875 34.4062 32.3438C34.1719 32.7344 33.3125 33.75 33.0781 34.0625C32.7656 34.2969 32.5312 34.375 32.1406 34.1406C29.5625 32.8906 27.9219 31.875 26.2031 28.9844C25.7344 28.2031 26.6719 28.2812 27.4531 26.6406C27.6094 26.3281 27.5312 26.0938 27.4531 25.8594C27.375 25.625 26.4375 23.5156 26.125 22.6562C25.7344 21.7969 25.4219 21.875 25.1094 21.875C24.875 21.875 24.5625 21.875 24.3281 21.875C24.0156 21.875 23.5469 21.9531 23.1562 22.4219C22.7656 22.8906 21.6719 23.9062 21.6719 26.0156C21.6719 28.2031 23.1562 30.2344 23.3906 30.5469C23.625 30.7812 26.4375 35.1562 30.8125 37.0312C33.5469 38.2812 34.6406 38.3594 36.0469 38.125C36.8281 38.0469 38.5469 37.1094 38.9375 36.0938C39.3281 35.0781 39.3281 34.2188 39.1719 34.0625C39.0938 33.8281 38.7812 33.75 38.3906 33.5156Z" fill="white"/>
</svg>
